<svg width="59" height="102" fill="none" xmlns="http://www.w3.org/2000/svg"><path d="M19.719 62.766c-.188.375-.412.74-.672 1.093a5.63 5.63 0 01-.875.922 3.85 3.85 0 01-1.078.64c-.386.167-.808.25-1.266.25-.646 0-1.172-.218-1.578-.655-.406-.438-.74-1.006-1-1.704a14.071 14.071 0 01-.594-2.39 58.253 58.253 0 01-.375-2.703c-.24.427-.463.875-.672 1.343-.197.459-.39.943-.578 1.454a89.04 89.04 0 00-.562 1.578c-.188.541-.39 1.099-.61 1.672-.052.125-.109.265-.171.421a1.955 1.955 0 01-.25.422 1.26 1.26 0 01-.344.36.83.83 0 01-.485.14.685.685 0 01-.359-.093 1.202 1.202 0 01-.281-.235A1.942 1.942 0 017.766 65a42.585 42.585 0 01-.141-.313 9.04 9.04 0 01-.5-1.437c-.125-.49-.234-.995-.328-1.516a32.238 32.238 0 01-.219-1.656 159.01 159.01 0 01-.187-1.86c-.22.511-.417 1-.594 1.47-.167.458-.333.921-.5 1.39-.156.458-.318.938-.484 1.438-.157.49-.323 1.02-.5 1.593a20.79 20.79 0 01-.141.438 1.765 1.765 0 01-.172.406.853.853 0 01-.266.313.63.63 0 01-.406.125c-.27 0-.469-.089-.594-.266a2.283 2.283 0 01-.312-.594c-.125-.312-.245-.745-.36-1.297a31.523 31.523 0 01-.53-3.859 26.347 26.347 0 01-.079-1.953c0-.583.156-1.01.469-1.281.312-.282.724-.422 1.234-.422h.14a.59.59 0 01.188.031c.063.01.115.031.157.063.052.03.073.072.062.124a26.06 26.06 0 00-.187 2.079 29.935 29.935 0 00-.032 1.922c.01.614.042 1.223.094 1.828.063.593.14 1.203.235 1.828.177-.594.348-1.162.515-1.703.177-.542.36-1.078.547-1.61a61.52 61.52 0 01.594-1.61c.218-.551.453-1.13.703-1.733.135-.313.276-.532.422-.657a.92.92 0 01.593-.187c.303 0 .537.114.704.343.177.23.291.49.343.782a36.6 36.6 0 01.22 1.64c.062.552.13 1.11.202 1.672.073.563.162 1.12.266 1.672.104.542.24 1.068.406 1.578.208-.541.417-1.104.625-1.687.209-.594.422-1.188.64-1.782.22-.593.449-1.177.688-1.75.25-.572.516-1.114.797-1.624.136-.24.287-.438.453-.594a.921.921 0 01.656-.25c.146 0 .277.036.391.11a.897.897 0 01.297.265c.083.104.151.224.203.36.052.124.089.254.11.39.052.302.098.692.14 1.172.052.479.115.99.188 1.53a32.1 32.1 0 00.296 1.642c.115.541.26 1.036.438 1.484.177.437.39.797.64 1.078s.553.422.907.422c.291 0 .573-.052.844-.156.27-.115.526-.256.765-.422a4.42 4.42 0 00.657-.594c.208-.23.395-.453.562-.672l.094.063zm11.906 0a4.47 4.47 0 01-.719 1.047c-.302.333-.64.635-1.015.906-.375.26-.771.469-1.188.625a3.499 3.499 0 01-1.234.234c-.563 0-1.032-.172-1.407-.516a3.063 3.063 0 01-.812-1.218 6.007 6.007 0 01-1.344 1.015c-.49.26-1.031.391-1.625.391a3.431 3.431 0 01-1.422-.281 2.957 2.957 0 01-1.015-.797 3.638 3.638 0 01-.625-1.156 4.729 4.729 0 01-.203-1.407c0-.562.078-1.109.234-1.64a6.657 6.657 0 01.656-1.532c.282-.49.615-.942 1-1.359a8.37 8.37 0 011.25-1.11l.188.141a8.274 8.274 0 00-1.047 2.078c-.26.75-.39 1.516-.39 2.297 0 .334.036.688.109 1.063.073.375.192.724.359 1.047.167.323.385.593.656.812.282.209.63.313 1.047.313.354 0 .693-.058 1.016-.172a4.53 4.53 0 00.937-.5 4.52 4.52 0 01-.062-.734c0-.5.073-1.042.218-1.625a12.09 12.09 0 01.579-1.735c.24-.583.51-1.135.812-1.656.313-.531.63-.984.953-1.36l.188.141c-.24.802-.438 1.63-.594 2.484a14.05 14.05 0 00-.234 2.532c0 .375.02.74.062 1.093.052.344.151.657.297.938.156.27.37.49.64.656.271.157.63.235 1.079.235.5 0 .968-.125 1.406-.375a5.03 5.03 0 001.156-.938l.094.063zm7.813-1.125c0 .541-.1 1.052-.297 1.53a3.78 3.78 0 01-.828 1.25 4.02 4.02 0 01-1.25.845 3.726 3.726 0 01-2.61.14 3.763 3.763 0 01-.984-.484 3.635 3.635 0 01-.766-.781 2.936 2.936 0 01-.469-1l.36-.094c.27.333.583.61.937.828.365.219.776.328 1.235.328.385 0 .74-.083 1.062-.25.333-.167.615-.385.844-.656a2.8 2.8 0 00.547-.938c.135-.364.203-.734.203-1.109 0-.448-.063-.818-.188-1.11a2.152 2.152 0 00-.5-.75 3.022 3.022 0 00-.672-.53 51.33 51.33 0 00-.765-.47 6.872 6.872 0 01-.734-.53 2.633 2.633 0 01-.594-.766 7.353 7.353 0 01-.313 1.937A10.063 10.063 0 0132.844 61a11.35 11.35 0 01-1.157 1.781 7.977 7.977 0 01-1.39 1.39l-.125-.218c.333-.354.625-.797.875-1.328s.453-1.089.61-1.672c.166-.594.286-1.187.359-1.781.083-.594.125-1.136.125-1.625 0-.26-.026-.516-.078-.766a3.593 3.593 0 01-.079-.734c0-.292.084-.516.25-.672a.978.978 0 01.672-.234c.209 0 .375.047.5.14.125.094.24.219.344.375.104.146.208.318.313.516.104.187.234.385.39.594.167.198.37.395.61.593.25.188.567.355.953.5.448.167.875.36 1.28.578.418.209.782.459 1.095.75a3.2 3.2 0 01.765 1.047c.188.396.282.865.282 1.407zm5.218-9.25c0 .208-.047.416-.14.625a2.038 2.038 0 01-.375.562 1.925 1.925 0 01-.516.39 1.294 1.294 0 01-.61.157.86.86 0 01-.656-.266.978.978 0 01-.234-.672c0-.208.047-.411.14-.609.094-.208.214-.39.36-.547a1.98 1.98 0 01.516-.375c.198-.104.4-.156.609-.156.27 0 .49.083.656.25.167.167.25.38.25.64zm4.375 10.375a5.76 5.76 0 01-.86 1.093c-.322.323-.681.61-1.077.86-.386.24-.802.427-1.25.562a4.57 4.57 0 01-1.36.203c-.583 0-1.104-.099-1.562-.296a3.35 3.35 0 01-1.14-.813 3.891 3.891 0 01-.704-1.234c-.156-.48-.234-1-.234-1.563 0-.604.088-1.177.265-1.719a6.177 6.177 0 01.735-1.515c.312-.48.677-.917 1.093-1.313.428-.396.88-.75 1.36-1.062l.187.14a8.073 8.073 0 00-1.25 2.032 6.035 6.035 0 00-.312 3.703c.114.427.286.807.516 1.14.24.334.541.6.906.797.364.198.807.297 1.328.297a4.06 4.06 0 001.75-.39 6.216 6.216 0 001.516-.985l.093.063zm9.094 0a4.6 4.6 0 01-1.063 1.203c-.427.343-.9.64-1.421.89a7.71 7.71 0 01-1.61.547 6.681 6.681 0 01-1.593.203 5.314 5.314 0 01-1.75-.28c-.532-.188-1-.46-1.407-.813a4.02 4.02 0 01-.937-1.297c-.219-.51-.328-1.089-.328-1.735 0-.729.13-1.442.39-2.14a6.281 6.281 0 011.11-1.86 5.542 5.542 0 011.687-1.297 4.626 4.626 0 012.125-.5c.25 0 .5.027.75.079.25.052.48.14.688.265.208.115.375.271.5.469.135.198.203.448.203.75s-.078.568-.235.797a1.996 1.996 0 01-.593.547c-.24.146-.5.265-.782.36-.27.082-.53.145-.78.187v-.22c.145-.04.301-.098.468-.171.177-.073.338-.167.484-.281.146-.115.266-.25.36-.407a.91.91 0 00.156-.515.568.568 0 00-.11-.36.718.718 0 00-.25-.25 1.04 1.04 0 00-.328-.14 1.539 1.539 0 00-.375-.047c-.53 0-1.01.12-1.437.36a3.338 3.338 0 00-1.063.921 4.385 4.385 0 00-.672 1.297c-.145.48-.218.964-.218 1.453 0 .563.083 1.068.25 1.516.177.437.422.812.734 1.125.313.312.693.552 1.14.719.449.166.949.25 1.5.25.355 0 .73-.037 1.126-.11a7.242 7.242 0 001.172-.344 6.57 6.57 0 001.093-.53c.344-.21.641-.443.891-.704l.125.063zM19.937 90.484c0 .813-.072 1.646-.218 2.5a13.075 13.075 0 01-.64 2.454 11.296 11.296 0 01-1.11 2.25 8.008 8.008 0 01-1.594 1.843 7.032 7.032 0 01-2.11 1.25c-.78.302-1.65.453-2.609.453a9.084 9.084 0 01-2.703-.406 6.774 6.774 0 01-2.297-1.187 5.939 5.939 0 01-1.61-1.938c-.395-.77-.593-1.661-.593-2.672 0-.604.068-1.198.203-1.781a9.406 9.406 0 01.594-1.703 8.87 8.87 0 01.938-1.531 8.66 8.66 0 011.234-1.313l.297.156a10.678 10.678 0 00-.844 2.204 9.498 9.498 0 00-.281 2.312c0 .833.114 1.651.343 2.453A6.86 6.86 0 007.97 98a5.474 5.474 0 001.75 1.563c.698.395 1.515.593 2.453.593.77 0 1.432-.125 1.984-.375a3.991 3.991 0 001.422-1 4.89 4.89 0 00.953-1.469c.25-.552.438-1.145.563-1.78a12.94 12.94 0 00.265-1.923c.052-.656.078-1.291.078-1.906 0-1.291-.072-2.615-.218-3.969a57.035 57.035 0 00-.594-4.093 68.074 68.074 0 00-.875-4.094 99.69 99.69 0 00-1.063-3.969c-.864.271-1.682.547-2.453.828-.77.281-1.442.547-2.015.797a3.057 3.057 0 01-.235.078 1.38 1.38 0 01-.218.016.94.94 0 01-.454-.11 1.36 1.36 0 01-.343-.296 1.43 1.43 0 01-.172-1.453c.083-.178.193-.334.328-.47.146-.135.307-.25.484-.343.177-.094.36-.172.547-.234.51-.178 1.11-.323 1.797-.438a23.539 23.539 0 012.14-.281 27.036 27.036 0 00-.155-.484 11.96 11.96 0 00-.141-.485l.281-.172.375.531c.125.178.25.36.375.547a28.052 28.052 0 011.563-.078 27.223 27.223 0 012.234-.015 10.465 10.465 0 012.016.187c.323.052.604.13.843.234l-.109.266c-.73.021-1.578.125-2.547.313a36.57 36.57 0 00-3 .718 28.561 28.561 0 011.735 3.594 33.14 33.14 0 011.296 3.828c.354 1.292.62 2.6.797 3.922.188 1.313.282 2.615.282 3.906zm10.485-17.828a6.03 6.03 0 00-.125.563c-.031.219-.068.463-.11.734.76.063 1.547.146 2.36.25.823.104 1.625.24 2.406.406.781.157 1.526.344 2.234.563a13.02 13.02 0 011.938.719l-.125.296a42.525 42.525 0 00-3.438-.296 61.961 61.961 0 00-3.406-.094c-.364 0-.734.01-1.11.031l-1.108.063a159.016 159.016 0 00-.484 5.547 245.26 245.26 0 00-.173 3.234A175.228 175.228 0 0029.188 88a115.265 115.265 0 00-.016 3.266c.02 1.062.062 2.078.125 3.046.062.959.15 1.85.265 2.672.115.823.26 1.537.438 2.141.02.094.047.188.078.281a.8.8 0 01.063.297.57.57 0 01-.125.391c-.084.104-.214.156-.391.156-.23 0-.458-.062-.688-.188a12.225 12.225 0 01-.593-.359c-.313-.208-.552-.541-.719-1a7.193 7.193 0 01-.36-1.484 13.517 13.517 0 01-.124-1.563c-.01-.51-.016-.932-.016-1.265 0-.792.016-1.667.047-2.625.041-.959.094-1.964.156-3.016.073-1.063.162-2.151.266-3.266a92.224 92.224 0 01.86-6.563c.187-1.051.395-2.04.624-2.968a43.34 43.34 0 00-2.312.219 37.2 37.2 0 00-2.235.312c-.718.125-1.411.266-2.078.422-.656.146-1.265.313-1.828.5a.894.894 0 01-.406.094c-.302 0-.453-.151-.453-.453 0-.209.057-.422.172-.64a5.58 5.58 0 01.343-.579c.177-.25.443-.469.797-.656a6.28 6.28 0 011.188-.516 10.39 10.39 0 011.437-.375c.51-.104 1.005-.187 1.485-.25.479-.073.927-.12 1.343-.14.427-.032.776-.047 1.047-.047.313 0 .64.01.985.031.343.01.697.026 1.062.047.167-.521.338-.984.516-1.39l.28.124zm14.812 5.797a.706.706 0 01-.047.25c-.02.073-.046.14-.078.203-.104.271-.213.537-.328.797-.114.26-.218.526-.312.797-.375 1.177-.667 2.495-.875 3.953A44.307 44.307 0 0043.219 89c.24.02.474.042.703.063.229.01.463.015.703.015.48 0 .995-.02 1.547-.062a38.973 38.973 0 001.625-.157 23.132 23.132 0 001.484-.25c.469-.093.86-.192 1.172-.296l.188.187c-.938.583-2.042 1.031-3.313 1.344-1.27.312-2.65.526-4.14.64a62.91 62.91 0 00.14 5.079c.115 1.677.281 3.25.5 4.718l-.266.125a16.291 16.291 0 01-.78-2.219 33.862 33.862 0 01-.579-2.453 40.42 40.42 0 01-.39-2.578 77.421 77.421 0 01-.235-2.594c-.208.01-.422.016-.64.016h-.641c-.188 0-.406-.005-.656-.016a3.645 3.645 0 01-.688-.124 1.374 1.374 0 01-.547-.329c-.146-.156-.218-.37-.218-.64a.73.73 0 01.124-.438c.094-.125.204-.224.329-.297.135-.083.28-.14.437-.171a1.98 1.98 0 01.484-.063 2.116 2.116 0 01.484.063c.24.03.48.067.72.109l.718.094c-.02-.396-.03-.787-.03-1.172v-1.14c0-.355.004-.766.015-1.235.01-.48.036-.985.078-1.516.052-.531.12-1.062.203-1.594.094-.541.219-1.052.375-1.53.156-.48.354-.907.594-1.282s.531-.667.875-.875c.177-.094.364-.182.562-.266a1.45 1.45 0 01.594-.14c.323 0 .484.145.484.437zm11.36-4.61c-.76.584-1.646 1.09-2.657 1.516-1.01.417-2.067.766-3.171 1.047-1.105.281-2.209.49-3.313.625-1.104.136-2.13.203-3.078.203-.292 0-.661-.015-1.11-.046a29.519 29.519 0 01-1.453-.141 23.503 23.503 0 01-1.578-.25 19.685 19.685 0 01-1.547-.39 7.288 7.288 0 01-1.28-.548c-.376-.208-.657-.442-.844-.703a12.621 12.621 0 01-.36-.594 1.425 1.425 0 01-.187-.687c0-.292.161-.438.484-.438.083 0 .156.006.219.016.062.01.135.026.218.047.396.125.771.255 1.126.39.364.136.74.261 1.124.376 1.26.291 2.527.51 3.797.656 1.282.135 2.573.203 3.875.203 1.584 0 3.209-.12 4.875-.36a22.37 22.37 0 004.735-1.203l.125.282z" fill="#fff"/><circle cx="28" cy="25" r="25" fill="#fff"/><g clip-path="url(#clip0)" fill="#F49300"><path d="M16.793 35.39a1.293 1.293 0 01-1.293-1.294V15.127a1.293 1.293 0 112.587 0v18.97c0 .714-.58 1.293-1.294 1.293zm4.483-1.639a1.293 1.293 0 01-1.293-1.293V17.8a1.293 1.293 0 112.586 0v14.657c0 .714-.579 1.293-1.293 1.293zm8.965.776a1.293 1.293 0 01-1.293-1.293V17.8a1.293 1.293 0 112.587 0v15.434c0 .715-.58 1.293-1.294 1.293zm4.483 1.639a1.293 1.293 0 01-1.293-1.294V16.076a1.293 1.293 0 112.586 0v18.796c0 .715-.579 1.294-1.293 1.294zm4.483-.776a1.293 1.293 0 01-1.294-1.294V15.127a1.293 1.293 0 112.587 0v18.97c0 .714-.579 1.293-1.293 1.293zm-13.448-3.45a1.293 1.293 0 01-1.294-1.293V19.87a1.293 1.293 0 112.587 0v10.777c0 .714-.579 1.293-1.293 1.293z"/></g><defs><clipPath id="clip0"><path fill="#fff" transform="translate(15.5 12.5)" d="M0 0h25v25H0z"/></clipPath></defs></svg>