<svg width="59" height="102" viewBox="0 0 59 102" fill="none" xmlns="http://www.w3.org/2000/svg">
<path d="M19.7188 62.7656C19.5312 63.1406 19.3073 63.5052 19.0469 63.8594C18.7865 64.2031 18.4948 64.5104 18.1719 64.7812C17.849 65.0521 17.4896 65.2656 17.0938 65.4219C16.7083 65.5885 16.2865 65.6719 15.8281 65.6719C15.1823 65.6719 14.6562 65.4531 14.25 65.0156C13.8438 64.5781 13.5104 64.0104 13.25 63.3125C13 62.6042 12.8021 61.8073 12.6562 60.9219C12.5104 60.026 12.3854 59.125 12.2812 58.2188C12.0417 58.6458 11.8177 59.0938 11.6094 59.5625C11.4115 60.0208 11.2188 60.5052 11.0312 61.0156C10.8438 61.526 10.6562 62.0521 10.4688 62.5938C10.2812 63.1354 10.0781 63.6927 9.85938 64.2656C9.80729 64.3906 9.75 64.5312 9.6875 64.6875C9.625 64.8333 9.54167 64.974 9.4375 65.1094C9.34375 65.2552 9.22917 65.375 9.09375 65.4688C8.95833 65.5625 8.79688 65.6094 8.60938 65.6094C8.47396 65.6094 8.35417 65.5781 8.25 65.5156C8.14583 65.4531 8.05208 65.375 7.96875 65.2812C7.89583 65.1979 7.82812 65.1042 7.76562 65C7.71354 64.8854 7.66667 64.7812 7.625 64.6875C7.41667 64.2188 7.25 63.7396 7.125 63.25C7 62.7604 6.89062 62.2552 6.79688 61.7344C6.71354 61.2135 6.64062 60.6615 6.57812 60.0781C6.51562 59.4948 6.45312 58.875 6.39062 58.2188C6.17188 58.7292 5.97396 59.2188 5.79688 59.6875C5.63021 60.1458 5.46354 60.6094 5.29688 61.0781C5.14062 61.5365 4.97917 62.0156 4.8125 62.5156C4.65625 63.0052 4.48958 63.5365 4.3125 64.1094C4.27083 64.2448 4.22396 64.3906 4.17188 64.5469C4.13021 64.6927 4.07292 64.8281 4 64.9531C3.9375 65.0781 3.84896 65.1823 3.73438 65.2656C3.63021 65.349 3.49479 65.3906 3.32812 65.3906C3.05729 65.3906 2.85938 65.3021 2.73438 65.125C2.60938 64.9583 2.50521 64.7604 2.42188 64.5312C2.29688 64.2188 2.17708 63.7865 2.0625 63.2344C1.94792 62.6719 1.84375 62.0625 1.75 61.4062C1.65625 60.75 1.58333 60.0729 1.53125 59.375C1.47917 58.6771 1.45312 58.026 1.45312 57.4219C1.45312 56.8385 1.60938 56.4115 1.92188 56.1406C2.23438 55.8594 2.64583 55.7188 3.15625 55.7188C3.1875 55.7188 3.23438 55.7188 3.29688 55.7188C3.35938 55.7188 3.42188 55.7292 3.48438 55.75C3.54688 55.7604 3.59896 55.7812 3.64062 55.8125C3.69271 55.8438 3.71354 55.8854 3.70312 55.9375C3.60938 56.6667 3.54688 57.3594 3.51562 58.0156C3.48438 58.6719 3.47396 59.3125 3.48438 59.9375C3.49479 60.5521 3.52604 61.1615 3.57812 61.7656C3.64062 62.3594 3.71875 62.9688 3.8125 63.5938C3.98958 63 4.16146 62.4323 4.32812 61.8906C4.50521 61.349 4.6875 60.8125 4.875 60.2812C5.0625 59.75 5.26042 59.2135 5.46875 58.6719C5.6875 58.1198 5.92188 57.5417 6.17188 56.9375C6.30729 56.625 6.44792 56.4062 6.59375 56.2812C6.75 56.1562 6.94792 56.0938 7.1875 56.0938C7.48958 56.0938 7.72396 56.2083 7.89062 56.4375C8.06771 56.6667 8.18229 56.9271 8.23438 57.2188C8.31771 57.75 8.39062 58.2969 8.45312 58.8594C8.51562 59.4115 8.58333 59.9688 8.65625 60.5312C8.72917 61.0938 8.81771 61.651 8.92188 62.2031C9.02604 62.7448 9.16146 63.2708 9.32812 63.7812C9.53646 63.2396 9.74479 62.6771 9.95312 62.0938C10.1615 61.5 10.375 60.9062 10.5938 60.3125C10.8125 59.7188 11.0417 59.1354 11.2812 58.5625C11.5312 57.9896 11.7969 57.4479 12.0781 56.9375C12.2135 56.6979 12.3646 56.5 12.5312 56.3438C12.7083 56.1771 12.9271 56.0938 13.1875 56.0938C13.3333 56.0938 13.4635 56.1302 13.5781 56.2031C13.6927 56.2656 13.7917 56.3542 13.875 56.4688C13.9583 56.5729 14.026 56.6927 14.0781 56.8281C14.1302 56.9531 14.1667 57.0833 14.1875 57.2188C14.2396 57.5208 14.2865 57.9115 14.3281 58.3906C14.3802 58.8698 14.4427 59.3802 14.5156 59.9219C14.599 60.4635 14.6979 61.0104 14.8125 61.5625C14.9271 62.1042 15.0729 62.599 15.25 63.0469C15.4271 63.4844 15.6406 63.8438 15.8906 64.125C16.1406 64.4062 16.4427 64.5469 16.7969 64.5469C17.0885 64.5469 17.3698 64.4948 17.6406 64.3906C17.9115 64.276 18.1667 64.1354 18.4062 63.9688C18.6458 63.7917 18.8646 63.5938 19.0625 63.375C19.2708 63.1458 19.4583 62.9219 19.625 62.7031L19.7188 62.7656ZM31.625 62.7656C31.4479 63.1302 31.2083 63.4792 30.9062 63.8125C30.6042 64.1458 30.2656 64.4479 29.8906 64.7188C29.5156 64.9792 29.1198 65.1875 28.7031 65.3438C28.2865 65.5 27.875 65.5781 27.4688 65.5781C26.9062 65.5781 26.4375 65.4062 26.0625 65.0625C25.6979 64.7292 25.4271 64.3229 25.25 63.8438C24.8438 64.25 24.3958 64.5885 23.9062 64.8594C23.4167 65.1198 22.875 65.25 22.2812 65.25C21.75 65.25 21.276 65.1562 20.8594 64.9688C20.4531 64.7708 20.1146 64.5052 19.8438 64.1719C19.5729 63.8385 19.3646 63.4531 19.2188 63.0156C19.0833 62.5781 19.0156 62.1094 19.0156 61.6094C19.0156 61.0469 19.0938 60.5 19.25 59.9688C19.4062 59.4271 19.625 58.9167 19.9062 58.4375C20.1875 57.9479 20.5208 57.4948 20.9062 57.0781C21.2917 56.6615 21.7083 56.2917 22.1562 55.9688L22.3438 56.1094C21.9062 56.7344 21.5573 57.4271 21.2969 58.1875C21.0365 58.9375 20.9062 59.7031 20.9062 60.4844C20.9062 60.8177 20.9427 61.1719 21.0156 61.5469C21.0885 61.9219 21.2083 62.2708 21.375 62.5938C21.5417 62.9167 21.7604 63.1875 22.0312 63.4062C22.3125 63.6146 22.6615 63.7188 23.0781 63.7188C23.4323 63.7188 23.7708 63.6615 24.0938 63.5469C24.4167 63.4219 24.7292 63.2552 25.0312 63.0469C25.0104 62.9219 24.9948 62.8021 24.9844 62.6875C24.974 62.5625 24.9688 62.4375 24.9688 62.3125C24.9688 61.8125 25.0417 61.2708 25.1875 60.6875C25.3333 60.1042 25.526 59.526 25.7656 58.9531C26.0052 58.3698 26.276 57.8177 26.5781 57.2969C26.8906 56.7656 27.2083 56.3125 27.5312 55.9375L27.7188 56.0781C27.4792 56.8802 27.2812 57.7083 27.125 58.5625C26.9688 59.4167 26.8906 60.2604 26.8906 61.0938C26.8906 61.4688 26.9115 61.8333 26.9531 62.1875C27.0052 62.5312 27.1042 62.8438 27.25 63.125C27.4062 63.3958 27.6198 63.6146 27.8906 63.7812C28.1615 63.9375 28.5208 64.0156 28.9688 64.0156C29.4688 64.0156 29.9375 63.8906 30.375 63.6406C30.8125 63.3802 31.1979 63.0677 31.5312 62.7031L31.625 62.7656ZM39.4375 61.6406C39.4375 62.1823 39.3385 62.6927 39.1406 63.1719C38.9427 63.651 38.6667 64.0677 38.3125 64.4219C37.9583 64.776 37.5417 65.0573 37.0625 65.2656C36.5938 65.474 36.0833 65.5781 35.5312 65.5781C35.1667 65.5781 34.8073 65.5208 34.4531 65.4062C34.099 65.2917 33.7708 65.1302 33.4688 64.9219C33.1771 64.7031 32.9219 64.4427 32.7031 64.1406C32.4844 63.8385 32.3281 63.5052 32.2344 63.1406L32.5938 63.0469C32.8646 63.3802 33.1771 63.6562 33.5312 63.875C33.8958 64.0938 34.3073 64.2031 34.7656 64.2031C35.151 64.2031 35.5052 64.1198 35.8281 63.9531C36.1615 63.7865 36.4427 63.5677 36.6719 63.2969C36.9115 63.026 37.0938 62.7135 37.2188 62.3594C37.3542 61.9948 37.4219 61.625 37.4219 61.25C37.4219 60.8021 37.3594 60.4323 37.2344 60.1406C37.1094 59.8385 36.9427 59.5885 36.7344 59.3906C36.5365 59.1823 36.3125 59.0052 36.0625 58.8594C35.8125 58.7031 35.5573 58.5469 35.2969 58.3906C35.0469 58.2344 34.8021 58.0573 34.5625 57.8594C34.3333 57.6615 34.1354 57.4062 33.9688 57.0938C33.9583 57.7083 33.8542 58.3542 33.6562 59.0312C33.4583 59.7083 33.1875 60.3646 32.8438 61C32.5104 61.6354 32.125 62.2292 31.6875 62.7812C31.25 63.3333 30.7865 63.7969 30.2969 64.1719L30.1719 63.9531C30.5052 63.599 30.7969 63.1562 31.0469 62.625C31.2969 62.0938 31.5 61.5365 31.6562 60.9531C31.8229 60.3594 31.9427 59.7656 32.0156 59.1719C32.099 58.5781 32.1406 58.0365 32.1406 57.5469C32.1406 57.2865 32.1146 57.0312 32.0625 56.7812C32.0104 56.5312 31.9844 56.2865 31.9844 56.0469C31.9844 55.7552 32.0677 55.5312 32.2344 55.375C32.4115 55.2188 32.6354 55.1406 32.9062 55.1406C33.1146 55.1406 33.2812 55.1875 33.4062 55.2812C33.5312 55.375 33.6458 55.5 33.75 55.6562C33.8542 55.8021 33.9583 55.974 34.0625 56.1719C34.1667 56.3594 34.2969 56.5573 34.4531 56.7656C34.6198 56.9635 34.8229 57.1615 35.0625 57.3594C35.3125 57.5469 35.6302 57.7135 36.0156 57.8594C36.4635 58.026 36.8906 58.2188 37.2969 58.4375C37.7135 58.6458 38.0781 58.8958 38.3906 59.1875C38.7135 59.4792 38.9688 59.8281 39.1562 60.2344C39.3438 60.6302 39.4375 61.099 39.4375 61.6406ZM44.6562 52.3906C44.6562 52.599 44.6094 52.8073 44.5156 53.0156C44.4219 53.224 44.2969 53.4115 44.1406 53.5781C43.9948 53.7344 43.8229 53.8646 43.625 53.9688C43.4271 54.0729 43.224 54.125 43.0156 54.125C42.7448 54.125 42.526 54.0365 42.3594 53.8594C42.2031 53.6823 42.125 53.4583 42.125 53.1875C42.125 52.9792 42.1719 52.776 42.2656 52.5781C42.3594 52.3698 42.4792 52.1875 42.625 52.0312C42.7812 51.875 42.9531 51.75 43.1406 51.6562C43.3385 51.5521 43.5417 51.5 43.75 51.5C44.0208 51.5 44.2396 51.5833 44.4062 51.75C44.5729 51.9167 44.6562 52.1302 44.6562 52.3906ZM49.0312 62.7656C48.7917 63.1615 48.5052 63.526 48.1719 63.8594C47.849 64.1823 47.4896 64.4688 47.0938 64.7188C46.7083 64.9583 46.2917 65.1458 45.8438 65.2812C45.4062 65.4167 44.9531 65.4844 44.4844 65.4844C43.901 65.4844 43.3802 65.3854 42.9219 65.1875C42.474 64.9896 42.0938 64.7188 41.7812 64.375C41.4792 64.0208 41.2448 63.6094 41.0781 63.1406C40.9219 62.6615 40.8438 62.1406 40.8438 61.5781C40.8438 60.974 40.9323 60.401 41.1094 59.8594C41.2865 59.3177 41.5312 58.8125 41.8438 58.3438C42.1562 57.8646 42.5208 57.4271 42.9375 57.0312C43.3646 56.6354 43.8177 56.2812 44.2969 55.9688L44.4844 56.1094C43.974 56.7135 43.5573 57.3906 43.2344 58.1406C42.9219 58.8906 42.7656 59.6719 42.7656 60.4844C42.7656 60.9531 42.8177 61.4062 42.9219 61.8438C43.0365 62.2708 43.2083 62.651 43.4375 62.9844C43.6771 63.3177 43.9792 63.5833 44.3438 63.7812C44.7083 63.9792 45.151 64.0781 45.6719 64.0781C46.2865 64.0781 46.8698 63.9479 47.4219 63.6875C47.9844 63.4271 48.4896 63.099 48.9375 62.7031L49.0312 62.7656ZM58.125 62.7656C57.8542 63.2135 57.5 63.6146 57.0625 63.9688C56.6354 64.3125 56.1615 64.6094 55.6406 64.8594C55.1302 65.099 54.5938 65.2812 54.0312 65.4062C53.4792 65.5417 52.9479 65.6094 52.4375 65.6094C51.8125 65.6094 51.2292 65.5156 50.6875 65.3281C50.1562 65.1406 49.6875 64.8698 49.2812 64.5156C48.8854 64.151 48.5729 63.7188 48.3438 63.2188C48.125 62.7083 48.0156 62.1302 48.0156 61.4844C48.0156 60.7552 48.1458 60.0417 48.4062 59.3438C48.6771 58.6458 49.0469 58.026 49.5156 57.4844C49.9948 56.9427 50.5573 56.5104 51.2031 56.1875C51.8594 55.8542 52.5677 55.6875 53.3281 55.6875C53.5781 55.6875 53.8281 55.7135 54.0781 55.7656C54.3281 55.8177 54.5573 55.9062 54.7656 56.0312C54.974 56.1458 55.1406 56.3021 55.2656 56.5C55.401 56.6979 55.4688 56.9479 55.4688 57.25C55.4688 57.5521 55.3906 57.8177 55.2344 58.0469C55.0781 58.2656 54.8802 58.4479 54.6406 58.5938C54.401 58.7396 54.1406 58.8594 53.8594 58.9531C53.5885 59.0365 53.3281 59.099 53.0781 59.1406V58.9219C53.224 58.8802 53.3802 58.8229 53.5469 58.75C53.724 58.6771 53.8854 58.5833 54.0312 58.4688C54.1771 58.3542 54.2969 58.2188 54.3906 58.0625C54.4948 57.9062 54.5469 57.7344 54.5469 57.5469C54.5469 57.401 54.5104 57.2812 54.4375 57.1875C54.375 57.0833 54.2917 57 54.1875 56.9375C54.0938 56.875 53.9844 56.8281 53.8594 56.7969C53.7344 56.7656 53.6094 56.75 53.4844 56.75C52.9531 56.75 52.474 56.8698 52.0469 57.1094C51.6302 57.3385 51.276 57.6458 50.9844 58.0312C50.6927 58.4167 50.4688 58.849 50.3125 59.3281C50.1667 59.8073 50.0938 60.2917 50.0938 60.7812C50.0938 61.3438 50.1771 61.849 50.3438 62.2969C50.5208 62.7344 50.7656 63.1094 51.0781 63.4219C51.3906 63.7344 51.7708 63.974 52.2188 64.1406C52.6667 64.3073 53.1667 64.3906 53.7188 64.3906C54.0729 64.3906 54.4479 64.3542 54.8438 64.2812C55.25 64.1979 55.6406 64.0833 56.0156 63.9375C56.401 63.7917 56.7656 63.6146 57.1094 63.4062C57.4531 63.1979 57.75 62.9635 58 62.7031L58.125 62.7656ZM19.9375 90.4844C19.9375 91.2969 19.8646 92.1302 19.7188 92.9844C19.5833 93.8281 19.3698 94.6458 19.0781 95.4375C18.7865 96.2396 18.4167 96.9896 17.9688 97.6875C17.5208 98.3958 16.9896 99.0104 16.375 99.5312C15.7604 100.062 15.0573 100.479 14.2656 100.781C13.4844 101.083 12.6146 101.234 11.6562 101.234C10.7292 101.234 9.82812 101.099 8.95312 100.828C8.08854 100.568 7.32292 100.172 6.65625 99.6406C5.98958 99.1198 5.45312 98.474 5.04688 97.7031C4.65104 96.9323 4.45312 96.0417 4.45312 95.0312C4.45312 94.4271 4.52083 93.8333 4.65625 93.25C4.80208 92.6562 5 92.0885 5.25 91.5469C5.51042 91.0052 5.82292 90.4948 6.1875 90.0156C6.55208 89.5365 6.96354 89.099 7.42188 88.7031L7.71875 88.8594C7.35417 89.5677 7.07292 90.3021 6.875 91.0625C6.6875 91.8125 6.59375 92.5833 6.59375 93.375C6.59375 94.2083 6.70833 95.026 6.9375 95.8281C7.16667 96.6406 7.51042 97.3646 7.96875 98C8.4375 98.6458 9.02083 99.1667 9.71875 99.5625C10.4167 99.9583 11.2344 100.156 12.1719 100.156C12.9427 100.156 13.6042 100.031 14.1562 99.7812C14.7188 99.5417 15.1927 99.2083 15.5781 98.7812C15.974 98.3646 16.2917 97.875 16.5312 97.3125C16.7812 96.7604 16.9688 96.1667 17.0938 95.5312C17.2292 94.9062 17.3177 94.2656 17.3594 93.6094C17.4115 92.9531 17.4375 92.3177 17.4375 91.7031C17.4375 90.4115 17.3646 89.0885 17.2188 87.7344C17.0729 86.3802 16.875 85.0156 16.625 83.6406C16.375 82.2656 16.0833 80.901 15.75 79.5469C15.4167 78.1927 15.0625 76.8698 14.6875 75.5781C13.8229 75.849 13.0052 76.125 12.2344 76.4062C11.4635 76.6875 10.7917 76.9531 10.2188 77.2031C10.1354 77.2344 10.0573 77.2604 9.98438 77.2812C9.92188 77.2917 9.84896 77.2969 9.76562 77.2969C9.59896 77.2969 9.44792 77.2604 9.3125 77.1875C9.17708 77.1042 9.0625 77.0052 8.96875 76.8906C8.875 76.7656 8.80208 76.6302 8.75 76.4844C8.69792 76.3281 8.67188 76.1771 8.67188 76.0312C8.67188 75.8021 8.71354 75.6042 8.79688 75.4375C8.88021 75.2604 8.98958 75.1042 9.125 74.9688C9.27083 74.8333 9.43229 74.7188 9.60938 74.625C9.78646 74.5312 9.96875 74.4531 10.1562 74.3906C10.6667 74.2135 11.2656 74.0677 11.9531 73.9531C12.651 73.8281 13.3646 73.7344 14.0938 73.6719C14.0417 73.5052 13.9896 73.3438 13.9375 73.1875C13.8958 73.0312 13.849 72.8698 13.7969 72.7031L14.0781 72.5312C14.2031 72.7083 14.3281 72.8854 14.4531 73.0625C14.5781 73.2396 14.7031 73.4219 14.8281 73.6094C15.3698 73.5677 15.8906 73.5417 16.3906 73.5312C16.8906 73.5104 17.3385 73.5 17.7344 73.5C17.9948 73.5 18.2917 73.5052 18.625 73.5156C18.9583 73.5156 19.2969 73.5312 19.6406 73.5625C19.9844 73.5938 20.3177 73.6406 20.6406 73.7031C20.9635 73.7552 21.2448 73.8333 21.4844 73.9375L21.375 74.2031C20.6458 74.224 19.7969 74.3281 18.8281 74.5156C17.8594 74.7031 16.8594 74.9427 15.8281 75.2344C16.4844 76.3802 17.0625 77.5781 17.5625 78.8281C18.0729 80.0781 18.5052 81.3542 18.8594 82.6562C19.2135 83.9479 19.4792 85.2552 19.6562 86.5781C19.8438 87.8906 19.9375 89.1927 19.9375 90.4844ZM30.4219 72.6562C30.3802 72.8021 30.3385 72.9896 30.2969 73.2188C30.2656 73.4375 30.2292 73.6823 30.1875 73.9531C30.9479 74.0156 31.7344 74.099 32.5469 74.2031C33.3698 74.3073 34.1719 74.4427 34.9531 74.6094C35.7344 74.7656 36.4792 74.9531 37.1875 75.1719C37.9062 75.3802 38.5521 75.6198 39.125 75.8906L39 76.1875C37.8542 76.0417 36.7083 75.9427 35.5625 75.8906C34.4271 75.8281 33.2917 75.7969 32.1562 75.7969C31.7917 75.7969 31.4219 75.8073 31.0469 75.8281C30.6823 75.849 30.3125 75.8698 29.9375 75.8906C29.8542 76.6615 29.7708 77.5208 29.6875 78.4688C29.6042 79.4062 29.526 80.3958 29.4531 81.4375C29.3906 82.4792 29.3333 83.5573 29.2812 84.6719C29.2396 85.776 29.2083 86.8854 29.1875 88C29.1667 89.1042 29.1615 90.1927 29.1719 91.2656C29.1927 92.3281 29.2344 93.3438 29.2969 94.3125C29.3594 95.2708 29.4479 96.1615 29.5625 96.9844C29.6771 97.8073 29.8229 98.5208 30 99.125C30.0208 99.2188 30.0469 99.3125 30.0781 99.4062C30.1198 99.5104 30.1406 99.6094 30.1406 99.7031C30.1406 99.8698 30.099 100 30.0156 100.094C29.9323 100.198 29.8021 100.25 29.625 100.25C29.3958 100.25 29.1667 100.188 28.9375 100.062C28.7188 99.9375 28.5208 99.8177 28.3438 99.7031C28.0312 99.4948 27.7917 99.1615 27.625 98.7031C27.4583 98.2448 27.3385 97.75 27.2656 97.2188C27.1927 96.6875 27.151 96.1667 27.1406 95.6562C27.1302 95.1458 27.125 94.724 27.125 94.3906C27.125 93.599 27.1406 92.724 27.1719 91.7656C27.2135 90.8073 27.2656 89.8021 27.3281 88.75C27.401 87.6875 27.4896 86.599 27.5938 85.4844C27.6979 84.3594 27.8229 83.25 27.9688 82.1562C28.1146 81.0521 28.276 79.974 28.4531 78.9219C28.6406 77.8698 28.849 76.8802 29.0781 75.9531C28.3073 76.0052 27.5365 76.0781 26.7656 76.1719C26.0052 76.2552 25.2604 76.3594 24.5312 76.4844C23.8125 76.6094 23.1198 76.75 22.4531 76.9062C21.7969 77.0521 21.1875 77.2188 20.625 77.4062C20.5 77.4688 20.3646 77.5 20.2188 77.5C19.9167 77.5 19.7656 77.349 19.7656 77.0469C19.7656 76.8385 19.8229 76.625 19.9375 76.4062C20.0521 76.1875 20.1667 75.9948 20.2812 75.8281C20.4583 75.5781 20.724 75.3594 21.0781 75.1719C21.4219 74.974 21.8177 74.8021 22.2656 74.6562C22.724 74.5 23.2031 74.375 23.7031 74.2812C24.2135 74.1771 24.7083 74.0938 25.1875 74.0312C25.6667 73.9583 26.1146 73.9115 26.5312 73.8906C26.9583 73.8594 27.3073 73.8438 27.5781 73.8438C27.8906 73.8438 28.2188 73.8542 28.5625 73.875C28.9062 73.8854 29.2604 73.901 29.625 73.9219C29.7917 73.401 29.9635 72.9375 30.1406 72.5312L30.4219 72.6562ZM45.2344 78.4531C45.2344 78.5365 45.2188 78.6198 45.1875 78.7031C45.1667 78.776 45.1406 78.8438 45.1094 78.9062C45.0052 79.1771 44.8958 79.4427 44.7812 79.7031C44.6667 79.9635 44.5625 80.2292 44.4688 80.5C44.0938 81.6771 43.8021 82.9948 43.5938 84.4531C43.3958 85.901 43.2708 87.4167 43.2188 89C43.4583 89.0208 43.6927 89.0417 43.9219 89.0625C44.151 89.0729 44.3854 89.0781 44.625 89.0781C45.1042 89.0781 45.6198 89.0573 46.1719 89.0156C46.724 88.974 47.2656 88.9219 47.7969 88.8594C48.3281 88.7865 48.8229 88.7031 49.2812 88.6094C49.75 88.5156 50.1406 88.4167 50.4531 88.3125L50.6406 88.5C49.7031 89.0833 48.599 89.5312 47.3281 89.8438C46.0573 90.1562 44.6771 90.3698 43.1875 90.4844C43.1667 92.2031 43.2135 93.8958 43.3281 95.5625C43.4427 97.2396 43.6094 98.8125 43.8281 100.281L43.5625 100.406C43.2604 99.7188 43 98.9792 42.7812 98.1875C42.5625 97.3958 42.3698 96.5781 42.2031 95.7344C42.0469 94.8906 41.9167 94.0312 41.8125 93.1562C41.7188 92.2812 41.6406 91.4167 41.5781 90.5625C41.3698 90.5729 41.1562 90.5781 40.9375 90.5781C40.7292 90.5781 40.5156 90.5781 40.2969 90.5781C40.1094 90.5781 39.8906 90.5729 39.6406 90.5625C39.401 90.5417 39.1719 90.5 38.9531 90.4375C38.7344 90.3646 38.5521 90.2552 38.4062 90.1094C38.2604 89.9531 38.1875 89.7396 38.1875 89.4688C38.1875 89.2917 38.2292 89.1458 38.3125 89.0312C38.4062 88.9062 38.5156 88.8073 38.6406 88.7344C38.776 88.651 38.9219 88.5938 39.0781 88.5625C39.2448 88.5208 39.4062 88.5 39.5625 88.5C39.6458 88.5 39.724 88.5052 39.7969 88.5156C39.8802 88.526 39.9635 88.5417 40.0469 88.5625C40.2865 88.5938 40.526 88.6302 40.7656 88.6719C41.0052 88.7031 41.2448 88.7344 41.4844 88.7656C41.4635 88.3698 41.4531 87.9792 41.4531 87.5938C41.4531 87.1979 41.4531 86.8177 41.4531 86.4531C41.4531 86.099 41.4583 85.6875 41.4688 85.2188C41.4792 84.7396 41.5052 84.2344 41.5469 83.7031C41.599 83.1719 41.6667 82.6406 41.75 82.1094C41.8438 81.5677 41.9688 81.0573 42.125 80.5781C42.2812 80.099 42.4792 79.6719 42.7188 79.2969C42.9583 78.9219 43.25 78.6302 43.5938 78.4219C43.7708 78.3281 43.9583 78.2396 44.1562 78.1562C44.3646 78.0625 44.5625 78.0156 44.75 78.0156C45.0729 78.0156 45.2344 78.1615 45.2344 78.4531ZM56.5938 73.8438C55.8333 74.4271 54.9479 74.9323 53.9375 75.3594C52.9271 75.776 51.8698 76.125 50.7656 76.4062C49.6615 76.6875 48.5573 76.8958 47.4531 77.0312C46.349 77.1667 45.3229 77.2344 44.375 77.2344C44.0833 77.2344 43.7135 77.2188 43.2656 77.1875C42.8177 77.1562 42.3333 77.1094 41.8125 77.0469C41.3021 76.9844 40.776 76.901 40.2344 76.7969C39.6927 76.6823 39.1771 76.5521 38.6875 76.4062C38.2083 76.25 37.7812 76.0677 37.4062 75.8594C37.0312 75.651 36.75 75.4167 36.5625 75.1562C36.4479 74.9792 36.3281 74.7812 36.2031 74.5625C36.0781 74.3333 36.0156 74.1042 36.0156 73.875C36.0156 73.5833 36.1771 73.4375 36.5 73.4375C36.5833 73.4375 36.6562 73.4427 36.7188 73.4531C36.7812 73.4635 36.8542 73.4792 36.9375 73.5C37.3333 73.625 37.7083 73.7552 38.0625 73.8906C38.4271 74.026 38.8021 74.151 39.1875 74.2656C40.4479 74.5573 41.7135 74.776 42.9844 74.9219C44.2656 75.0573 45.5573 75.125 46.8594 75.125C48.4427 75.125 50.0677 75.0052 51.7344 74.7656C53.401 74.526 54.9792 74.125 56.4688 73.5625L56.5938 73.8438Z" fill="white"/>
<circle cx="28" cy="25" r="25" fill="white"/>
<g clip-path="url(#clip0)">
<path d="M16.7934 35.3896C16.0789 35.3896 15.5 34.8107 15.5 34.0962V15.1273C15.5 14.4129 16.0789 13.834 16.7934 13.834C17.5079 13.834 18.0867 14.4128 18.0867 15.1273V34.0962C18.0866 34.8107 17.5078 35.3896 16.7934 35.3896Z" fill="#F49300"/>
<path d="M21.276 33.7513C20.5616 33.7513 19.9827 33.1724 19.9827 32.4579V17.8005C19.9827 17.0861 20.5615 16.5071 21.276 16.5071C21.9905 16.5071 22.5694 17.086 22.5694 17.8005V32.458C22.5694 33.1724 21.9904 33.7513 21.276 33.7513Z" fill="#F49300"/>
<path d="M30.2412 34.5273C29.5268 34.5273 28.9479 33.9485 28.9479 33.234V17.8005C28.9479 17.0861 29.5267 16.5071 30.2412 16.5071C30.9557 16.5071 31.5346 17.086 31.5346 17.8005V33.234C31.5346 33.9485 30.9556 34.5273 30.2412 34.5273Z" fill="#F49300"/>
<path d="M34.724 36.1657C34.0096 36.1657 33.4307 35.5868 33.4307 34.8723V16.0762C33.4307 15.3618 34.0095 14.7828 34.724 14.7828C35.4384 14.7828 36.0174 15.3617 36.0174 16.0762V34.8724C36.0173 35.5868 35.4384 36.1657 34.724 36.1657Z" fill="#F49300"/>
<path d="M39.2066 35.3896C38.4922 35.3896 37.9133 34.8107 37.9133 34.0962V15.1273C37.9133 14.4129 38.4921 13.834 39.2066 13.834C39.9211 13.834 40.5 14.4128 40.5 15.1273V34.0962C40.5 34.8107 39.921 35.3896 39.2066 35.3896Z" fill="#F49300"/>
<path d="M25.7588 31.9404C25.0444 31.9404 24.4655 31.3615 24.4655 30.647V19.8695C24.4655 19.1551 25.0443 18.5761 25.7588 18.5761C26.4733 18.5761 27.0522 19.155 27.0522 19.8695V30.647C27.0521 31.3614 26.4732 31.9404 25.7588 31.9404Z" fill="#F49300"/>
</g>
<defs>
<clipPath id="clip0">
<rect width="25" height="25" fill="white" transform="translate(15.5 12.5)"/>
</clipPath>
</defs>
</svg>
