<svg width="61" height="120" viewBox="0 0 61 120" fill="none" xmlns="http://www.w3.org/2000/svg">
<path d="M21.7188 80.7656C21.5312 81.1406 21.3073 81.5052 21.0469 81.8594C20.7865 82.2031 20.4948 82.5104 20.1719 82.7812C19.849 83.0521 19.4896 83.2656 19.0938 83.4219C18.7083 83.5885 18.2865 83.6719 17.8281 83.6719C17.1823 83.6719 16.6562 83.4531 16.25 83.0156C15.8438 82.5781 15.5104 82.0104 15.25 81.3125C15 80.6042 14.8021 79.8073 14.6562 78.9219C14.5104 78.026 14.3854 77.125 14.2812 76.2188C14.0417 76.6458 13.8177 77.0938 13.6094 77.5625C13.4115 78.0208 13.2188 78.5052 13.0312 79.0156C12.8438 79.526 12.6562 80.0521 12.4688 80.5938C12.2812 81.1354 12.0781 81.6927 11.8594 82.2656C11.8073 82.3906 11.75 82.5312 11.6875 82.6875C11.625 82.8333 11.5417 82.974 11.4375 83.1094C11.3438 83.2552 11.2292 83.375 11.0938 83.4688C10.9583 83.5625 10.7969 83.6094 10.6094 83.6094C10.474 83.6094 10.3542 83.5781 10.25 83.5156C10.1458 83.4531 10.0521 83.375 9.96875 83.2812C9.89583 83.1979 9.82812 83.1042 9.76562 83C9.71354 82.8854 9.66667 82.7812 9.625 82.6875C9.41667 82.2188 9.25 81.7396 9.125 81.25C9 80.7604 8.89062 80.2552 8.79688 79.7344C8.71354 79.2135 8.64062 78.6615 8.57812 78.0781C8.51562 77.4948 8.45312 76.875 8.39062 76.2188C8.17188 76.7292 7.97396 77.2188 7.79688 77.6875C7.63021 78.1458 7.46354 78.6094 7.29688 79.0781C7.14062 79.5365 6.97917 80.0156 6.8125 80.5156C6.65625 81.0052 6.48958 81.5365 6.3125 82.1094C6.27083 82.2448 6.22396 82.3906 6.17188 82.5469C6.13021 82.6927 6.07292 82.8281 6 82.9531C5.9375 83.0781 5.84896 83.1823 5.73438 83.2656C5.63021 83.349 5.49479 83.3906 5.32812 83.3906C5.05729 83.3906 4.85938 83.3021 4.73438 83.125C4.60938 82.9583 4.50521 82.7604 4.42188 82.5312C4.29688 82.2188 4.17708 81.7865 4.0625 81.2344C3.94792 80.6719 3.84375 80.0625 3.75 79.4062C3.65625 78.75 3.58333 78.0729 3.53125 77.375C3.47917 76.6771 3.45312 76.026 3.45312 75.4219C3.45312 74.8385 3.60938 74.4115 3.92188 74.1406C4.23438 73.8594 4.64583 73.7188 5.15625 73.7188C5.1875 73.7188 5.23438 73.7188 5.29688 73.7188C5.35938 73.7188 5.42188 73.7292 5.48438 73.75C5.54688 73.7604 5.59896 73.7812 5.64062 73.8125C5.69271 73.8438 5.71354 73.8854 5.70312 73.9375C5.60938 74.6667 5.54688 75.3594 5.51562 76.0156C5.48438 76.6719 5.47396 77.3125 5.48438 77.9375C5.49479 78.5521 5.52604 79.1615 5.57812 79.7656C5.64062 80.3594 5.71875 80.9688 5.8125 81.5938C5.98958 81 6.16146 80.4323 6.32812 79.8906C6.50521 79.349 6.6875 78.8125 6.875 78.2812C7.0625 77.75 7.26042 77.2135 7.46875 76.6719C7.6875 76.1198 7.92188 75.5417 8.17188 74.9375C8.30729 74.625 8.44792 74.4062 8.59375 74.2812C8.75 74.1562 8.94792 74.0938 9.1875 74.0938C9.48958 74.0938 9.72396 74.2083 9.89062 74.4375C10.0677 74.6667 10.1823 74.9271 10.2344 75.2188C10.3177 75.75 10.3906 76.2969 10.4531 76.8594C10.5156 77.4115 10.5833 77.9688 10.6562 78.5312C10.7292 79.0938 10.8177 79.651 10.9219 80.2031C11.026 80.7448 11.1615 81.2708 11.3281 81.7812C11.5365 81.2396 11.7448 80.6771 11.9531 80.0938C12.1615 79.5 12.375 78.9062 12.5938 78.3125C12.8125 77.7188 13.0417 77.1354 13.2812 76.5625C13.5312 75.9896 13.7969 75.4479 14.0781 74.9375C14.2135 74.6979 14.3646 74.5 14.5312 74.3438C14.7083 74.1771 14.9271 74.0938 15.1875 74.0938C15.3333 74.0938 15.4635 74.1302 15.5781 74.2031C15.6927 74.2656 15.7917 74.3542 15.875 74.4688C15.9583 74.5729 16.026 74.6927 16.0781 74.8281C16.1302 74.9531 16.1667 75.0833 16.1875 75.2188C16.2396 75.5208 16.2865 75.9115 16.3281 76.3906C16.3802 76.8698 16.4427 77.3802 16.5156 77.9219C16.599 78.4635 16.6979 79.0104 16.8125 79.5625C16.9271 80.1042 17.0729 80.599 17.25 81.0469C17.4271 81.4844 17.6406 81.8438 17.8906 82.125C18.1406 82.4062 18.4427 82.5469 18.7969 82.5469C19.0885 82.5469 19.3698 82.4948 19.6406 82.3906C19.9115 82.276 20.1667 82.1354 20.4062 81.9688C20.6458 81.7917 20.8646 81.5938 21.0625 81.375C21.2708 81.1458 21.4583 80.9219 21.625 80.7031L21.7188 80.7656ZM33.625 80.7656C33.4479 81.1302 33.2083 81.4792 32.9062 81.8125C32.6042 82.1458 32.2656 82.4479 31.8906 82.7188C31.5156 82.9792 31.1198 83.1875 30.7031 83.3438C30.2865 83.5 29.875 83.5781 29.4688 83.5781C28.9062 83.5781 28.4375 83.4062 28.0625 83.0625C27.6979 82.7292 27.4271 82.3229 27.25 81.8438C26.8438 82.25 26.3958 82.5885 25.9062 82.8594C25.4167 83.1198 24.875 83.25 24.2812 83.25C23.75 83.25 23.276 83.1562 22.8594 82.9688C22.4531 82.7708 22.1146 82.5052 21.8438 82.1719C21.5729 81.8385 21.3646 81.4531 21.2188 81.0156C21.0833 80.5781 21.0156 80.1094 21.0156 79.6094C21.0156 79.0469 21.0938 78.5 21.25 77.9688C21.4062 77.4271 21.625 76.9167 21.9062 76.4375C22.1875 75.9479 22.5208 75.4948 22.9062 75.0781C23.2917 74.6615 23.7083 74.2917 24.1562 73.9688L24.3438 74.1094C23.9062 74.7344 23.5573 75.4271 23.2969 76.1875C23.0365 76.9375 22.9062 77.7031 22.9062 78.4844C22.9062 78.8177 22.9427 79.1719 23.0156 79.5469C23.0885 79.9219 23.2083 80.2708 23.375 80.5938C23.5417 80.9167 23.7604 81.1875 24.0312 81.4062C24.3125 81.6146 24.6615 81.7188 25.0781 81.7188C25.4323 81.7188 25.7708 81.6615 26.0938 81.5469C26.4167 81.4219 26.7292 81.2552 27.0312 81.0469C27.0104 80.9219 26.9948 80.8021 26.9844 80.6875C26.974 80.5625 26.9688 80.4375 26.9688 80.3125C26.9688 79.8125 27.0417 79.2708 27.1875 78.6875C27.3333 78.1042 27.526 77.526 27.7656 76.9531C28.0052 76.3698 28.276 75.8177 28.5781 75.2969C28.8906 74.7656 29.2083 74.3125 29.5312 73.9375L29.7188 74.0781C29.4792 74.8802 29.2812 75.7083 29.125 76.5625C28.9688 77.4167 28.8906 78.2604 28.8906 79.0938C28.8906 79.4688 28.9115 79.8333 28.9531 80.1875C29.0052 80.5312 29.1042 80.8438 29.25 81.125C29.4062 81.3958 29.6198 81.6146 29.8906 81.7812C30.1615 81.9375 30.5208 82.0156 30.9688 82.0156C31.4688 82.0156 31.9375 81.8906 32.375 81.6406C32.8125 81.3802 33.1979 81.0677 33.5312 80.7031L33.625 80.7656ZM41.4375 79.6406C41.4375 80.1823 41.3385 80.6927 41.1406 81.1719C40.9427 81.651 40.6667 82.0677 40.3125 82.4219C39.9583 82.776 39.5417 83.0573 39.0625 83.2656C38.5938 83.474 38.0833 83.5781 37.5312 83.5781C37.1667 83.5781 36.8073 83.5208 36.4531 83.4062C36.099 83.2917 35.7708 83.1302 35.4688 82.9219C35.1771 82.7031 34.9219 82.4427 34.7031 82.1406C34.4844 81.8385 34.3281 81.5052 34.2344 81.1406L34.5938 81.0469C34.8646 81.3802 35.1771 81.6562 35.5312 81.875C35.8958 82.0938 36.3073 82.2031 36.7656 82.2031C37.151 82.2031 37.5052 82.1198 37.8281 81.9531C38.1615 81.7865 38.4427 81.5677 38.6719 81.2969C38.9115 81.026 39.0938 80.7135 39.2188 80.3594C39.3542 79.9948 39.4219 79.625 39.4219 79.25C39.4219 78.8021 39.3594 78.4323 39.2344 78.1406C39.1094 77.8385 38.9427 77.5885 38.7344 77.3906C38.5365 77.1823 38.3125 77.0052 38.0625 76.8594C37.8125 76.7031 37.5573 76.5469 37.2969 76.3906C37.0469 76.2344 36.8021 76.0573 36.5625 75.8594C36.3333 75.6615 36.1354 75.4062 35.9688 75.0938C35.9583 75.7083 35.8542 76.3542 35.6562 77.0312C35.4583 77.7083 35.1875 78.3646 34.8438 79C34.5104 79.6354 34.125 80.2292 33.6875 80.7812C33.25 81.3333 32.7865 81.7969 32.2969 82.1719L32.1719 81.9531C32.5052 81.599 32.7969 81.1562 33.0469 80.625C33.2969 80.0938 33.5 79.5365 33.6562 78.9531C33.8229 78.3594 33.9427 77.7656 34.0156 77.1719C34.099 76.5781 34.1406 76.0365 34.1406 75.5469C34.1406 75.2865 34.1146 75.0312 34.0625 74.7812C34.0104 74.5312 33.9844 74.2865 33.9844 74.0469C33.9844 73.7552 34.0677 73.5312 34.2344 73.375C34.4115 73.2188 34.6354 73.1406 34.9062 73.1406C35.1146 73.1406 35.2812 73.1875 35.4062 73.2812C35.5312 73.375 35.6458 73.5 35.75 73.6562C35.8542 73.8021 35.9583 73.974 36.0625 74.1719C36.1667 74.3594 36.2969 74.5573 36.4531 74.7656C36.6198 74.9635 36.8229 75.1615 37.0625 75.3594C37.3125 75.5469 37.6302 75.7135 38.0156 75.8594C38.4635 76.026 38.8906 76.2188 39.2969 76.4375C39.7135 76.6458 40.0781 76.8958 40.3906 77.1875C40.7135 77.4792 40.9688 77.8281 41.1562 78.2344C41.3438 78.6302 41.4375 79.099 41.4375 79.6406ZM46.6562 70.3906C46.6562 70.599 46.6094 70.8073 46.5156 71.0156C46.4219 71.224 46.2969 71.4115 46.1406 71.5781C45.9948 71.7344 45.8229 71.8646 45.625 71.9688C45.4271 72.0729 45.224 72.125 45.0156 72.125C44.7448 72.125 44.526 72.0365 44.3594 71.8594C44.2031 71.6823 44.125 71.4583 44.125 71.1875C44.125 70.9792 44.1719 70.776 44.2656 70.5781C44.3594 70.3698 44.4792 70.1875 44.625 70.0312C44.7812 69.875 44.9531 69.75 45.1406 69.6562C45.3385 69.5521 45.5417 69.5 45.75 69.5C46.0208 69.5 46.2396 69.5833 46.4062 69.75C46.5729 69.9167 46.6562 70.1302 46.6562 70.3906ZM51.0312 80.7656C50.7917 81.1615 50.5052 81.526 50.1719 81.8594C49.849 82.1823 49.4896 82.4688 49.0938 82.7188C48.7083 82.9583 48.2917 83.1458 47.8438 83.2812C47.4062 83.4167 46.9531 83.4844 46.4844 83.4844C45.901 83.4844 45.3802 83.3854 44.9219 83.1875C44.474 82.9896 44.0938 82.7188 43.7812 82.375C43.4792 82.0208 43.2448 81.6094 43.0781 81.1406C42.9219 80.6615 42.8438 80.1406 42.8438 79.5781C42.8438 78.974 42.9323 78.401 43.1094 77.8594C43.2865 77.3177 43.5312 76.8125 43.8438 76.3438C44.1562 75.8646 44.5208 75.4271 44.9375 75.0312C45.3646 74.6354 45.8177 74.2812 46.2969 73.9688L46.4844 74.1094C45.974 74.7135 45.5573 75.3906 45.2344 76.1406C44.9219 76.8906 44.7656 77.6719 44.7656 78.4844C44.7656 78.9531 44.8177 79.4062 44.9219 79.8438C45.0365 80.2708 45.2083 80.651 45.4375 80.9844C45.6771 81.3177 45.9792 81.5833 46.3438 81.7812C46.7083 81.9792 47.151 82.0781 47.6719 82.0781C48.2865 82.0781 48.8698 81.9479 49.4219 81.6875C49.9844 81.4271 50.4896 81.099 50.9375 80.7031L51.0312 80.7656ZM60.125 80.7656C59.8542 81.2135 59.5 81.6146 59.0625 81.9688C58.6354 82.3125 58.1615 82.6094 57.6406 82.8594C57.1302 83.099 56.5938 83.2812 56.0312 83.4062C55.4792 83.5417 54.9479 83.6094 54.4375 83.6094C53.8125 83.6094 53.2292 83.5156 52.6875 83.3281C52.1562 83.1406 51.6875 82.8698 51.2812 82.5156C50.8854 82.151 50.5729 81.7188 50.3438 81.2188C50.125 80.7083 50.0156 80.1302 50.0156 79.4844C50.0156 78.7552 50.1458 78.0417 50.4062 77.3438C50.6771 76.6458 51.0469 76.026 51.5156 75.4844C51.9948 74.9427 52.5573 74.5104 53.2031 74.1875C53.8594 73.8542 54.5677 73.6875 55.3281 73.6875C55.5781 73.6875 55.8281 73.7135 56.0781 73.7656C56.3281 73.8177 56.5573 73.9062 56.7656 74.0312C56.974 74.1458 57.1406 74.3021 57.2656 74.5C57.401 74.6979 57.4688 74.9479 57.4688 75.25C57.4688 75.5521 57.3906 75.8177 57.2344 76.0469C57.0781 76.2656 56.8802 76.4479 56.6406 76.5938C56.401 76.7396 56.1406 76.8594 55.8594 76.9531C55.5885 77.0365 55.3281 77.099 55.0781 77.1406V76.9219C55.224 76.8802 55.3802 76.8229 55.5469 76.75C55.724 76.6771 55.8854 76.5833 56.0312 76.4688C56.1771 76.3542 56.2969 76.2188 56.3906 76.0625C56.4948 75.9062 56.5469 75.7344 56.5469 75.5469C56.5469 75.401 56.5104 75.2812 56.4375 75.1875C56.375 75.0833 56.2917 75 56.1875 74.9375C56.0938 74.875 55.9844 74.8281 55.8594 74.7969C55.7344 74.7656 55.6094 74.75 55.4844 74.75C54.9531 74.75 54.474 74.8698 54.0469 75.1094C53.6302 75.3385 53.276 75.6458 52.9844 76.0312C52.6927 76.4167 52.4688 76.849 52.3125 77.3281C52.1667 77.8073 52.0938 78.2917 52.0938 78.7812C52.0938 79.3438 52.1771 79.849 52.3438 80.2969C52.5208 80.7344 52.7656 81.1094 53.0781 81.4219C53.3906 81.7344 53.7708 81.974 54.2188 82.1406C54.6667 82.3073 55.1667 82.3906 55.7188 82.3906C56.0729 82.3906 56.4479 82.3542 56.8438 82.2812C57.25 82.1979 57.6406 82.0833 58.0156 81.9375C58.401 81.7917 58.7656 81.6146 59.1094 81.4062C59.4531 81.1979 59.75 80.9635 60 80.7031L60.125 80.7656ZM21.9375 108.484C21.9375 109.297 21.8646 110.13 21.7188 110.984C21.5833 111.828 21.3698 112.646 21.0781 113.438C20.7865 114.24 20.4167 114.99 19.9688 115.688C19.5208 116.396 18.9896 117.01 18.375 117.531C17.7604 118.062 17.0573 118.479 16.2656 118.781C15.4844 119.083 14.6146 119.234 13.6562 119.234C12.7292 119.234 11.8281 119.099 10.9531 118.828C10.0885 118.568 9.32292 118.172 8.65625 117.641C7.98958 117.12 7.45312 116.474 7.04688 115.703C6.65104 114.932 6.45312 114.042 6.45312 113.031C6.45312 112.427 6.52083 111.833 6.65625 111.25C6.80208 110.656 7 110.089 7.25 109.547C7.51042 109.005 7.82292 108.495 8.1875 108.016C8.55208 107.536 8.96354 107.099 9.42188 106.703L9.71875 106.859C9.35417 107.568 9.07292 108.302 8.875 109.062C8.6875 109.812 8.59375 110.583 8.59375 111.375C8.59375 112.208 8.70833 113.026 8.9375 113.828C9.16667 114.641 9.51042 115.365 9.96875 116C10.4375 116.646 11.0208 117.167 11.7188 117.562C12.4167 117.958 13.2344 118.156 14.1719 118.156C14.9427 118.156 15.6042 118.031 16.1562 117.781C16.7188 117.542 17.1927 117.208 17.5781 116.781C17.974 116.365 18.2917 115.875 18.5312 115.312C18.7812 114.76 18.9688 114.167 19.0938 113.531C19.2292 112.906 19.3177 112.266 19.3594 111.609C19.4115 110.953 19.4375 110.318 19.4375 109.703C19.4375 108.411 19.3646 107.089 19.2188 105.734C19.0729 104.38 18.875 103.016 18.625 101.641C18.375 100.266 18.0833 98.901 17.75 97.5469C17.4167 96.1927 17.0625 94.8698 16.6875 93.5781C15.8229 93.849 15.0052 94.125 14.2344 94.4062C13.4635 94.6875 12.7917 94.9531 12.2188 95.2031C12.1354 95.2344 12.0573 95.2604 11.9844 95.2812C11.9219 95.2917 11.849 95.2969 11.7656 95.2969C11.599 95.2969 11.4479 95.2604 11.3125 95.1875C11.1771 95.1042 11.0625 95.0052 10.9688 94.8906C10.875 94.7656 10.8021 94.6302 10.75 94.4844C10.6979 94.3281 10.6719 94.1771 10.6719 94.0312C10.6719 93.8021 10.7135 93.6042 10.7969 93.4375C10.8802 93.2604 10.9896 93.1042 11.125 92.9688C11.2708 92.8333 11.4323 92.7188 11.6094 92.625C11.7865 92.5312 11.9688 92.4531 12.1562 92.3906C12.6667 92.2135 13.2656 92.0677 13.9531 91.9531C14.651 91.8281 15.3646 91.7344 16.0938 91.6719C16.0417 91.5052 15.9896 91.3438 15.9375 91.1875C15.8958 91.0312 15.849 90.8698 15.7969 90.7031L16.0781 90.5312C16.2031 90.7083 16.3281 90.8854 16.4531 91.0625C16.5781 91.2396 16.7031 91.4219 16.8281 91.6094C17.3698 91.5677 17.8906 91.5417 18.3906 91.5312C18.8906 91.5104 19.3385 91.5 19.7344 91.5C19.9948 91.5 20.2917 91.5052 20.625 91.5156C20.9583 91.5156 21.2969 91.5312 21.6406 91.5625C21.9844 91.5938 22.3177 91.6406 22.6406 91.7031C22.9635 91.7552 23.2448 91.8333 23.4844 91.9375L23.375 92.2031C22.6458 92.224 21.7969 92.3281 20.8281 92.5156C19.8594 92.7031 18.8594 92.9427 17.8281 93.2344C18.4844 94.3802 19.0625 95.5781 19.5625 96.8281C20.0729 98.0781 20.5052 99.3542 20.8594 100.656C21.2135 101.948 21.4792 103.255 21.6562 104.578C21.8438 105.891 21.9375 107.193 21.9375 108.484ZM32.4219 90.6562C32.3802 90.8021 32.3385 90.9896 32.2969 91.2188C32.2656 91.4375 32.2292 91.6823 32.1875 91.9531C32.9479 92.0156 33.7344 92.099 34.5469 92.2031C35.3698 92.3073 36.1719 92.4427 36.9531 92.6094C37.7344 92.7656 38.4792 92.9531 39.1875 93.1719C39.9062 93.3802 40.5521 93.6198 41.125 93.8906L41 94.1875C39.8542 94.0417 38.7083 93.9427 37.5625 93.8906C36.4271 93.8281 35.2917 93.7969 34.1562 93.7969C33.7917 93.7969 33.4219 93.8073 33.0469 93.8281C32.6823 93.849 32.3125 93.8698 31.9375 93.8906C31.8542 94.6615 31.7708 95.5208 31.6875 96.4688C31.6042 97.4062 31.526 98.3958 31.4531 99.4375C31.3906 100.479 31.3333 101.557 31.2812 102.672C31.2396 103.776 31.2083 104.885 31.1875 106C31.1667 107.104 31.1615 108.193 31.1719 109.266C31.1927 110.328 31.2344 111.344 31.2969 112.312C31.3594 113.271 31.4479 114.161 31.5625 114.984C31.6771 115.807 31.8229 116.521 32 117.125C32.0208 117.219 32.0469 117.312 32.0781 117.406C32.1198 117.51 32.1406 117.609 32.1406 117.703C32.1406 117.87 32.099 118 32.0156 118.094C31.9323 118.198 31.8021 118.25 31.625 118.25C31.3958 118.25 31.1667 118.188 30.9375 118.062C30.7188 117.938 30.5208 117.818 30.3438 117.703C30.0312 117.495 29.7917 117.161 29.625 116.703C29.4583 116.245 29.3385 115.75 29.2656 115.219C29.1927 114.688 29.151 114.167 29.1406 113.656C29.1302 113.146 29.125 112.724 29.125 112.391C29.125 111.599 29.1406 110.724 29.1719 109.766C29.2135 108.807 29.2656 107.802 29.3281 106.75C29.401 105.688 29.4896 104.599 29.5938 103.484C29.6979 102.359 29.8229 101.25 29.9688 100.156C30.1146 99.0521 30.276 97.974 30.4531 96.9219C30.6406 95.8698 30.849 94.8802 31.0781 93.9531C30.3073 94.0052 29.5365 94.0781 28.7656 94.1719C28.0052 94.2552 27.2604 94.3594 26.5312 94.4844C25.8125 94.6094 25.1198 94.75 24.4531 94.9062C23.7969 95.0521 23.1875 95.2188 22.625 95.4062C22.5 95.4688 22.3646 95.5 22.2188 95.5C21.9167 95.5 21.7656 95.349 21.7656 95.0469C21.7656 94.8385 21.8229 94.625 21.9375 94.4062C22.0521 94.1875 22.1667 93.9948 22.2812 93.8281C22.4583 93.5781 22.724 93.3594 23.0781 93.1719C23.4219 92.974 23.8177 92.8021 24.2656 92.6562C24.724 92.5 25.2031 92.375 25.7031 92.2812C26.2135 92.1771 26.7083 92.0938 27.1875 92.0312C27.6667 91.9583 28.1146 91.9115 28.5312 91.8906C28.9583 91.8594 29.3073 91.8438 29.5781 91.8438C29.8906 91.8438 30.2188 91.8542 30.5625 91.875C30.9062 91.8854 31.2604 91.901 31.625 91.9219C31.7917 91.401 31.9635 90.9375 32.1406 90.5312L32.4219 90.6562ZM47.2344 96.4531C47.2344 96.5365 47.2188 96.6198 47.1875 96.7031C47.1667 96.776 47.1406 96.8438 47.1094 96.9062C47.0052 97.1771 46.8958 97.4427 46.7812 97.7031C46.6667 97.9635 46.5625 98.2292 46.4688 98.5C46.0938 99.6771 45.8021 100.995 45.5938 102.453C45.3958 103.901 45.2708 105.417 45.2188 107C45.4583 107.021 45.6927 107.042 45.9219 107.062C46.151 107.073 46.3854 107.078 46.625 107.078C47.1042 107.078 47.6198 107.057 48.1719 107.016C48.724 106.974 49.2656 106.922 49.7969 106.859C50.3281 106.786 50.8229 106.703 51.2812 106.609C51.75 106.516 52.1406 106.417 52.4531 106.312L52.6406 106.5C51.7031 107.083 50.599 107.531 49.3281 107.844C48.0573 108.156 46.6771 108.37 45.1875 108.484C45.1667 110.203 45.2135 111.896 45.3281 113.562C45.4427 115.24 45.6094 116.812 45.8281 118.281L45.5625 118.406C45.2604 117.719 45 116.979 44.7812 116.188C44.5625 115.396 44.3698 114.578 44.2031 113.734C44.0469 112.891 43.9167 112.031 43.8125 111.156C43.7188 110.281 43.6406 109.417 43.5781 108.562C43.3698 108.573 43.1562 108.578 42.9375 108.578C42.7292 108.578 42.5156 108.578 42.2969 108.578C42.1094 108.578 41.8906 108.573 41.6406 108.562C41.401 108.542 41.1719 108.5 40.9531 108.438C40.7344 108.365 40.5521 108.255 40.4062 108.109C40.2604 107.953 40.1875 107.74 40.1875 107.469C40.1875 107.292 40.2292 107.146 40.3125 107.031C40.4062 106.906 40.5156 106.807 40.6406 106.734C40.776 106.651 40.9219 106.594 41.0781 106.562C41.2448 106.521 41.4062 106.5 41.5625 106.5C41.6458 106.5 41.724 106.505 41.7969 106.516C41.8802 106.526 41.9635 106.542 42.0469 106.562C42.2865 106.594 42.526 106.63 42.7656 106.672C43.0052 106.703 43.2448 106.734 43.4844 106.766C43.4635 106.37 43.4531 105.979 43.4531 105.594C43.4531 105.198 43.4531 104.818 43.4531 104.453C43.4531 104.099 43.4583 103.688 43.4688 103.219C43.4792 102.74 43.5052 102.234 43.5469 101.703C43.599 101.172 43.6667 100.641 43.75 100.109C43.8438 99.5677 43.9688 99.0573 44.125 98.5781C44.2812 98.099 44.4792 97.6719 44.7188 97.2969C44.9583 96.9219 45.25 96.6302 45.5938 96.4219C45.7708 96.3281 45.9583 96.2396 46.1562 96.1562C46.3646 96.0625 46.5625 96.0156 46.75 96.0156C47.0729 96.0156 47.2344 96.1615 47.2344 96.4531ZM58.5938 91.8438C57.8333 92.4271 56.9479 92.9323 55.9375 93.3594C54.9271 93.776 53.8698 94.125 52.7656 94.4062C51.6615 94.6875 50.5573 94.8958 49.4531 95.0312C48.349 95.1667 47.3229 95.2344 46.375 95.2344C46.0833 95.2344 45.7135 95.2188 45.2656 95.1875C44.8177 95.1562 44.3333 95.1094 43.8125 95.0469C43.3021 94.9844 42.776 94.901 42.2344 94.7969C41.6927 94.6823 41.1771 94.5521 40.6875 94.4062C40.2083 94.25 39.7812 94.0677 39.4062 93.8594C39.0312 93.651 38.75 93.4167 38.5625 93.1562C38.4479 92.9792 38.3281 92.7812 38.2031 92.5625C38.0781 92.3333 38.0156 92.1042 38.0156 91.875C38.0156 91.5833 38.1771 91.4375 38.5 91.4375C38.5833 91.4375 38.6562 91.4427 38.7188 91.4531C38.7812 91.4635 38.8542 91.4792 38.9375 91.5C39.3333 91.625 39.7083 91.7552 40.0625 91.8906C40.4271 92.026 40.8021 92.151 41.1875 92.2656C42.4479 92.5573 43.7135 92.776 44.9844 92.9219C46.2656 93.0573 47.5573 93.125 48.8594 93.125C50.4427 93.125 52.0677 93.0052 53.7344 92.7656C55.401 92.526 56.9792 92.125 58.4688 91.5625L58.5938 91.8438Z" fill="white"/>
<circle cx="30" cy="30" r="30" fill="white"/>
<g clip-path="url(#clip0)">
<path d="M16.552 42.4675C15.6946 42.4675 15 41.7729 15 40.9155V18.1528C15 17.2955 15.6946 16.6008 16.552 16.6008C17.4094 16.6008 18.1041 17.2954 18.1041 18.1528V40.9155C18.1039 41.7729 17.4093 42.4675 16.552 42.4675Z" fill="#F49300"/>
<path d="M21.9312 40.5016C21.0739 40.5016 20.3792 39.8069 20.3792 38.9495V21.3606C20.3792 20.5033 21.0738 19.8086 21.9312 19.8086C22.7886 19.8086 23.4833 20.5032 23.4833 21.3606V38.9496C23.4833 39.8069 22.7885 40.5016 21.9312 40.5016Z" fill="#F49300"/>
<path d="M32.6895 41.4328C31.8322 41.4328 31.1375 40.7382 31.1375 39.8808V21.3606C31.1375 20.5033 31.8321 19.8086 32.6895 19.8086C33.5469 19.8086 34.2415 20.5032 34.2415 21.3606V39.8809C34.2415 40.7382 33.5468 41.4328 32.6895 41.4328Z" fill="#F49300"/>
<path d="M38.0688 43.3988C37.2116 43.3988 36.5168 42.7042 36.5168 41.8468V19.2915C36.5168 18.4342 37.2114 17.7394 38.0688 17.7394C38.9261 17.7394 39.6209 18.4341 39.6209 19.2915V41.8469C39.6207 42.7042 38.9261 43.3988 38.0688 43.3988Z" fill="#F49300"/>
<path d="M43.448 42.4675C42.5907 42.4675 41.8959 41.7729 41.8959 40.9155V18.1528C41.8959 17.2955 42.5906 16.6008 43.448 16.6008C44.3054 16.6008 45 17.2954 45 18.1528V40.9155C45 41.7729 44.3052 42.4675 43.448 42.4675Z" fill="#F49300"/>
<path d="M27.3105 38.3285C26.4533 38.3285 25.7585 37.6338 25.7585 36.7765V23.8434C25.7585 22.9861 26.4531 22.2914 27.3105 22.2914C28.1679 22.2914 28.8626 22.986 28.8626 23.8434V36.7765C28.8625 37.6337 28.1678 38.3285 27.3105 38.3285Z" fill="#F49300"/>
</g>
<defs>
<clipPath id="clip0">
<rect width="30" height="30" fill="white" transform="translate(15 15)"/>
</clipPath>
</defs>
</svg>
